<mxfile host="app.diagrams.net" modified="2020-10-12T19:36:35.506Z" agent="5.0 (Macintosh; Intel Mac OS X 10_15_6) AppleWebKit/605.1.15 (KHTML, like Gecko) Version/14.0 Safari/605.1.15" etag="q8blrPTQf61xhOrxVTYK" version="13.7.9" type="github">
  <diagram id="8Px8I2vBb-_9MlGHMMYl" name="Page-1">
    <mxGraphModel dx="830" dy="609" grid="1" gridSize="10" guides="1" tooltips="1" connect="1" arrows="1" fold="1" page="1" pageScale="1" pageWidth="827" pageHeight="1169" math="0" shadow="0">
      <root>
        <mxCell id="0" />
        <mxCell id="1" parent="0" />
        <mxCell id="_RFqk7BaSSoq2iDviCtG-3" value="PerpetratorÂ " style="shape=table;startSize=30;container=1;collapsible=1;childLayout=tableLayout;fixedRows=1;rowLines=0;fontStyle=1;align=center;resizeLast=1;" vertex="1" parent="1">
          <mxGeometry x="60" y="110" width="180" height="190" as="geometry" />
        </mxCell>
        <mxCell id="_RFqk7BaSSoq2iDviCtG-4" value="" style="shape=partialRectangle;collapsible=0;dropTarget=0;pointerEvents=0;fillColor=none;top=0;left=0;bottom=1;right=0;points=[[0,0.5],[1,0.5]];portConstraint=eastwest;" vertex="1" parent="_RFqk7BaSSoq2iDviCtG-3">
          <mxGeometry y="30" width="180" height="30" as="geometry" />
        </mxCell>
        <mxCell id="_RFqk7BaSSoq2iDviCtG-5" value="PK" style="shape=partialRectangle;connectable=0;fillColor=none;top=0;left=0;bottom=0;right=0;fontStyle=1;overflow=hidden;" vertex="1" parent="_RFqk7BaSSoq2iDviCtG-4">
          <mxGeometry width="30" height="30" as="geometry" />
        </mxCell>
        <mxCell id="_RFqk7BaSSoq2iDviCtG-6" value="SSN" style="shape=partialRectangle;connectable=0;fillColor=none;top=0;left=0;bottom=0;right=0;align=left;spacingLeft=6;fontStyle=5;overflow=hidden;" vertex="1" parent="_RFqk7BaSSoq2iDviCtG-4">
          <mxGeometry x="30" width="150" height="30" as="geometry" />
        </mxCell>
        <mxCell id="_RFqk7BaSSoq2iDviCtG-7" value="" style="shape=partialRectangle;collapsible=0;dropTarget=0;pointerEvents=0;fillColor=none;top=0;left=0;bottom=0;right=0;points=[[0,0.5],[1,0.5]];portConstraint=eastwest;" vertex="1" parent="_RFqk7BaSSoq2iDviCtG-3">
          <mxGeometry y="60" width="180" height="30" as="geometry" />
        </mxCell>
        <mxCell id="_RFqk7BaSSoq2iDviCtG-8" value="" style="shape=partialRectangle;connectable=0;fillColor=none;top=0;left=0;bottom=0;right=0;editable=1;overflow=hidden;" vertex="1" parent="_RFqk7BaSSoq2iDviCtG-7">
          <mxGeometry width="30" height="30" as="geometry" />
        </mxCell>
        <mxCell id="_RFqk7BaSSoq2iDviCtG-9" value="First name" style="shape=partialRectangle;connectable=0;fillColor=none;top=0;left=0;bottom=0;right=0;align=left;spacingLeft=6;overflow=hidden;" vertex="1" parent="_RFqk7BaSSoq2iDviCtG-7">
          <mxGeometry x="30" width="150" height="30" as="geometry" />
        </mxCell>
        <mxCell id="_RFqk7BaSSoq2iDviCtG-10" value="" style="shape=partialRectangle;collapsible=0;dropTarget=0;pointerEvents=0;fillColor=none;top=0;left=0;bottom=0;right=0;points=[[0,0.5],[1,0.5]];portConstraint=eastwest;" vertex="1" parent="_RFqk7BaSSoq2iDviCtG-3">
          <mxGeometry y="90" width="180" height="30" as="geometry" />
        </mxCell>
        <mxCell id="_RFqk7BaSSoq2iDviCtG-11" value="" style="shape=partialRectangle;connectable=0;fillColor=none;top=0;left=0;bottom=0;right=0;editable=1;overflow=hidden;" vertex="1" parent="_RFqk7BaSSoq2iDviCtG-10">
          <mxGeometry width="30" height="30" as="geometry" />
        </mxCell>
        <mxCell id="_RFqk7BaSSoq2iDviCtG-12" value="Last Name" style="shape=partialRectangle;connectable=0;fillColor=none;top=0;left=0;bottom=0;right=0;align=left;spacingLeft=6;overflow=hidden;" vertex="1" parent="_RFqk7BaSSoq2iDviCtG-10">
          <mxGeometry x="30" width="150" height="30" as="geometry" />
        </mxCell>
        <mxCell id="_RFqk7BaSSoq2iDviCtG-13" value="" style="shape=partialRectangle;collapsible=0;dropTarget=0;pointerEvents=0;fillColor=none;top=0;left=0;bottom=0;right=0;points=[[0,0.5],[1,0.5]];portConstraint=eastwest;" vertex="1" parent="_RFqk7BaSSoq2iDviCtG-3">
          <mxGeometry y="120" width="180" height="30" as="geometry" />
        </mxCell>
        <mxCell id="_RFqk7BaSSoq2iDviCtG-14" value="" style="shape=partialRectangle;connectable=0;fillColor=none;top=0;left=0;bottom=0;right=0;editable=1;overflow=hidden;" vertex="1" parent="_RFqk7BaSSoq2iDviCtG-13">
          <mxGeometry width="30" height="30" as="geometry" />
        </mxCell>
        <mxCell id="_RFqk7BaSSoq2iDviCtG-15" value="Offense" style="shape=partialRectangle;connectable=0;fillColor=none;top=0;left=0;bottom=0;right=0;align=left;spacingLeft=6;overflow=hidden;" vertex="1" parent="_RFqk7BaSSoq2iDviCtG-13">
          <mxGeometry x="30" width="150" height="30" as="geometry" />
        </mxCell>
        <mxCell id="_RFqk7BaSSoq2iDviCtG-16" style="shape=partialRectangle;collapsible=0;dropTarget=0;pointerEvents=0;fillColor=none;top=0;left=0;bottom=0;right=0;points=[[0,0.5],[1,0.5]];portConstraint=eastwest;" vertex="1" parent="_RFqk7BaSSoq2iDviCtG-3">
          <mxGeometry y="150" width="180" height="30" as="geometry" />
        </mxCell>
        <mxCell id="_RFqk7BaSSoq2iDviCtG-17" style="shape=partialRectangle;connectable=0;fillColor=none;top=0;left=0;bottom=0;right=0;editable=1;overflow=hidden;" vertex="1" parent="_RFqk7BaSSoq2iDviCtG-16">
          <mxGeometry width="30" height="30" as="geometry" />
        </mxCell>
        <mxCell id="_RFqk7BaSSoq2iDviCtG-18" value="Officer" style="shape=partialRectangle;connectable=0;fillColor=none;top=0;left=0;bottom=0;right=0;align=left;spacingLeft=6;overflow=hidden;" vertex="1" parent="_RFqk7BaSSoq2iDviCtG-16">
          <mxGeometry x="30" width="150" height="30" as="geometry" />
        </mxCell>
        <mxCell id="_RFqk7BaSSoq2iDviCtG-19" value="Crime" style="shape=table;startSize=30;container=1;collapsible=1;childLayout=tableLayout;fixedRows=1;rowLines=0;fontStyle=1;align=center;resizeLast=1;" vertex="1" parent="1">
          <mxGeometry x="370" y="110" width="180" height="190" as="geometry" />
        </mxCell>
        <mxCell id="_RFqk7BaSSoq2iDviCtG-20" value="" style="shape=partialRectangle;collapsible=0;dropTarget=0;pointerEvents=0;fillColor=none;top=0;left=0;bottom=1;right=0;points=[[0,0.5],[1,0.5]];portConstraint=eastwest;" vertex="1" parent="_RFqk7BaSSoq2iDviCtG-19">
          <mxGeometry y="30" width="180" height="30" as="geometry" />
        </mxCell>
        <mxCell id="_RFqk7BaSSoq2iDviCtG-21" value="PK" style="shape=partialRectangle;connectable=0;fillColor=none;top=0;left=0;bottom=0;right=0;fontStyle=1;overflow=hidden;" vertex="1" parent="_RFqk7BaSSoq2iDviCtG-20">
          <mxGeometry width="30" height="30" as="geometry" />
        </mxCell>
        <mxCell id="_RFqk7BaSSoq2iDviCtG-22" value="IDNumber" style="shape=partialRectangle;connectable=0;fillColor=none;top=0;left=0;bottom=0;right=0;align=left;spacingLeft=6;fontStyle=5;overflow=hidden;" vertex="1" parent="_RFqk7BaSSoq2iDviCtG-20">
          <mxGeometry x="30" width="150" height="30" as="geometry" />
        </mxCell>
        <mxCell id="_RFqk7BaSSoq2iDviCtG-23" value="" style="shape=partialRectangle;collapsible=0;dropTarget=0;pointerEvents=0;fillColor=none;top=0;left=0;bottom=0;right=0;points=[[0,0.5],[1,0.5]];portConstraint=eastwest;" vertex="1" parent="_RFqk7BaSSoq2iDviCtG-19">
          <mxGeometry y="60" width="180" height="30" as="geometry" />
        </mxCell>
        <mxCell id="_RFqk7BaSSoq2iDviCtG-24" value="" style="shape=partialRectangle;connectable=0;fillColor=none;top=0;left=0;bottom=0;right=0;editable=1;overflow=hidden;" vertex="1" parent="_RFqk7BaSSoq2iDviCtG-23">
          <mxGeometry width="30" height="30" as="geometry" />
        </mxCell>
        <mxCell id="_RFqk7BaSSoq2iDviCtG-25" value="Location" style="shape=partialRectangle;connectable=0;fillColor=none;top=0;left=0;bottom=0;right=0;align=left;spacingLeft=6;overflow=hidden;" vertex="1" parent="_RFqk7BaSSoq2iDviCtG-23">
          <mxGeometry x="30" width="150" height="30" as="geometry" />
        </mxCell>
        <mxCell id="_RFqk7BaSSoq2iDviCtG-26" value="" style="shape=partialRectangle;collapsible=0;dropTarget=0;pointerEvents=0;fillColor=none;top=0;left=0;bottom=0;right=0;points=[[0,0.5],[1,0.5]];portConstraint=eastwest;" vertex="1" parent="_RFqk7BaSSoq2iDviCtG-19">
          <mxGeometry y="90" width="180" height="30" as="geometry" />
        </mxCell>
        <mxCell id="_RFqk7BaSSoq2iDviCtG-27" value="" style="shape=partialRectangle;connectable=0;fillColor=none;top=0;left=0;bottom=0;right=0;editable=1;overflow=hidden;" vertex="1" parent="_RFqk7BaSSoq2iDviCtG-26">
          <mxGeometry width="30" height="30" as="geometry" />
        </mxCell>
        <mxCell id="_RFqk7BaSSoq2iDviCtG-28" value="Type" style="shape=partialRectangle;connectable=0;fillColor=none;top=0;left=0;bottom=0;right=0;align=left;spacingLeft=6;overflow=hidden;" vertex="1" parent="_RFqk7BaSSoq2iDviCtG-26">
          <mxGeometry x="30" width="150" height="30" as="geometry" />
        </mxCell>
        <mxCell id="_RFqk7BaSSoq2iDviCtG-29" value="" style="shape=partialRectangle;collapsible=0;dropTarget=0;pointerEvents=0;fillColor=none;top=0;left=0;bottom=0;right=0;points=[[0,0.5],[1,0.5]];portConstraint=eastwest;" vertex="1" parent="_RFqk7BaSSoq2iDviCtG-19">
          <mxGeometry y="120" width="180" height="30" as="geometry" />
        </mxCell>
        <mxCell id="_RFqk7BaSSoq2iDviCtG-30" value="" style="shape=partialRectangle;connectable=0;fillColor=none;top=0;left=0;bottom=0;right=0;editable=1;overflow=hidden;" vertex="1" parent="_RFqk7BaSSoq2iDviCtG-29">
          <mxGeometry width="30" height="30" as="geometry" />
        </mxCell>
        <mxCell id="_RFqk7BaSSoq2iDviCtG-31" value="Officer" style="shape=partialRectangle;connectable=0;fillColor=none;top=0;left=0;bottom=0;right=0;align=left;spacingLeft=6;overflow=hidden;" vertex="1" parent="_RFqk7BaSSoq2iDviCtG-29">
          <mxGeometry x="30" width="150" height="30" as="geometry" />
        </mxCell>
        <mxCell id="_RFqk7BaSSoq2iDviCtG-48" style="shape=partialRectangle;collapsible=0;dropTarget=0;pointerEvents=0;fillColor=none;top=0;left=0;bottom=0;right=0;points=[[0,0.5],[1,0.5]];portConstraint=eastwest;" vertex="1" parent="_RFqk7BaSSoq2iDviCtG-19">
          <mxGeometry y="150" width="180" height="30" as="geometry" />
        </mxCell>
        <mxCell id="_RFqk7BaSSoq2iDviCtG-49" style="shape=partialRectangle;connectable=0;fillColor=none;top=0;left=0;bottom=0;right=0;editable=1;overflow=hidden;" vertex="1" parent="_RFqk7BaSSoq2iDviCtG-48">
          <mxGeometry width="30" height="30" as="geometry" />
        </mxCell>
        <mxCell id="_RFqk7BaSSoq2iDviCtG-50" value="Perpetrator" style="shape=partialRectangle;connectable=0;fillColor=none;top=0;left=0;bottom=0;right=0;align=left;spacingLeft=6;overflow=hidden;" vertex="1" parent="_RFqk7BaSSoq2iDviCtG-48">
          <mxGeometry x="30" width="150" height="30" as="geometry" />
        </mxCell>
        <mxCell id="_RFqk7BaSSoq2iDviCtG-32" value="Officer" style="shape=table;startSize=30;container=1;collapsible=1;childLayout=tableLayout;fixedRows=1;rowLines=0;fontStyle=1;align=center;resizeLast=1;" vertex="1" parent="1">
          <mxGeometry x="60" y="400" width="180" height="190" as="geometry" />
        </mxCell>
        <mxCell id="_RFqk7BaSSoq2iDviCtG-33" value="" style="shape=partialRectangle;collapsible=0;dropTarget=0;pointerEvents=0;fillColor=none;top=0;left=0;bottom=1;right=0;points=[[0,0.5],[1,0.5]];portConstraint=eastwest;" vertex="1" parent="_RFqk7BaSSoq2iDviCtG-32">
          <mxGeometry y="30" width="180" height="30" as="geometry" />
        </mxCell>
        <mxCell id="_RFqk7BaSSoq2iDviCtG-34" value="PK" style="shape=partialRectangle;connectable=0;fillColor=none;top=0;left=0;bottom=0;right=0;fontStyle=1;overflow=hidden;" vertex="1" parent="_RFqk7BaSSoq2iDviCtG-33">
          <mxGeometry width="30" height="30" as="geometry" />
        </mxCell>
        <mxCell id="_RFqk7BaSSoq2iDviCtG-35" value="BadgeNumber" style="shape=partialRectangle;connectable=0;fillColor=none;top=0;left=0;bottom=0;right=0;align=left;spacingLeft=6;fontStyle=5;overflow=hidden;" vertex="1" parent="_RFqk7BaSSoq2iDviCtG-33">
          <mxGeometry x="30" width="150" height="30" as="geometry" />
        </mxCell>
        <mxCell id="_RFqk7BaSSoq2iDviCtG-36" value="" style="shape=partialRectangle;collapsible=0;dropTarget=0;pointerEvents=0;fillColor=none;top=0;left=0;bottom=0;right=0;points=[[0,0.5],[1,0.5]];portConstraint=eastwest;" vertex="1" parent="_RFqk7BaSSoq2iDviCtG-32">
          <mxGeometry y="60" width="180" height="30" as="geometry" />
        </mxCell>
        <mxCell id="_RFqk7BaSSoq2iDviCtG-37" value="" style="shape=partialRectangle;connectable=0;fillColor=none;top=0;left=0;bottom=0;right=0;editable=1;overflow=hidden;" vertex="1" parent="_RFqk7BaSSoq2iDviCtG-36">
          <mxGeometry width="30" height="30" as="geometry" />
        </mxCell>
        <mxCell id="_RFqk7BaSSoq2iDviCtG-38" value="First Name" style="shape=partialRectangle;connectable=0;fillColor=none;top=0;left=0;bottom=0;right=0;align=left;spacingLeft=6;overflow=hidden;" vertex="1" parent="_RFqk7BaSSoq2iDviCtG-36">
          <mxGeometry x="30" width="150" height="30" as="geometry" />
        </mxCell>
        <mxCell id="_RFqk7BaSSoq2iDviCtG-39" value="" style="shape=partialRectangle;collapsible=0;dropTarget=0;pointerEvents=0;fillColor=none;top=0;left=0;bottom=0;right=0;points=[[0,0.5],[1,0.5]];portConstraint=eastwest;" vertex="1" parent="_RFqk7BaSSoq2iDviCtG-32">
          <mxGeometry y="90" width="180" height="30" as="geometry" />
        </mxCell>
        <mxCell id="_RFqk7BaSSoq2iDviCtG-40" value="" style="shape=partialRectangle;connectable=0;fillColor=none;top=0;left=0;bottom=0;right=0;editable=1;overflow=hidden;" vertex="1" parent="_RFqk7BaSSoq2iDviCtG-39">
          <mxGeometry width="30" height="30" as="geometry" />
        </mxCell>
        <mxCell id="_RFqk7BaSSoq2iDviCtG-41" value="Last Name" style="shape=partialRectangle;connectable=0;fillColor=none;top=0;left=0;bottom=0;right=0;align=left;spacingLeft=6;overflow=hidden;" vertex="1" parent="_RFqk7BaSSoq2iDviCtG-39">
          <mxGeometry x="30" width="150" height="30" as="geometry" />
        </mxCell>
        <mxCell id="_RFqk7BaSSoq2iDviCtG-42" value="" style="shape=partialRectangle;collapsible=0;dropTarget=0;pointerEvents=0;fillColor=none;top=0;left=0;bottom=0;right=0;points=[[0,0.5],[1,0.5]];portConstraint=eastwest;" vertex="1" parent="_RFqk7BaSSoq2iDviCtG-32">
          <mxGeometry y="120" width="180" height="30" as="geometry" />
        </mxCell>
        <mxCell id="_RFqk7BaSSoq2iDviCtG-43" value="" style="shape=partialRectangle;connectable=0;fillColor=none;top=0;left=0;bottom=0;right=0;editable=1;overflow=hidden;" vertex="1" parent="_RFqk7BaSSoq2iDviCtG-42">
          <mxGeometry width="30" height="30" as="geometry" />
        </mxCell>
        <mxCell id="_RFqk7BaSSoq2iDviCtG-44" value="DOB" style="shape=partialRectangle;connectable=0;fillColor=none;top=0;left=0;bottom=0;right=0;align=left;spacingLeft=6;overflow=hidden;" vertex="1" parent="_RFqk7BaSSoq2iDviCtG-42">
          <mxGeometry x="30" width="150" height="30" as="geometry" />
        </mxCell>
        <mxCell id="_RFqk7BaSSoq2iDviCtG-45" style="shape=partialRectangle;collapsible=0;dropTarget=0;pointerEvents=0;fillColor=none;top=0;left=0;bottom=0;right=0;points=[[0,0.5],[1,0.5]];portConstraint=eastwest;" vertex="1" parent="_RFqk7BaSSoq2iDviCtG-32">
          <mxGeometry y="150" width="180" height="30" as="geometry" />
        </mxCell>
        <mxCell id="_RFqk7BaSSoq2iDviCtG-46" style="shape=partialRectangle;connectable=0;fillColor=none;top=0;left=0;bottom=0;right=0;editable=1;overflow=hidden;" vertex="1" parent="_RFqk7BaSSoq2iDviCtG-45">
          <mxGeometry width="30" height="30" as="geometry" />
        </mxCell>
        <mxCell id="_RFqk7BaSSoq2iDviCtG-47" value="Arrests" style="shape=partialRectangle;connectable=0;fillColor=none;top=0;left=0;bottom=0;right=0;align=left;spacingLeft=6;overflow=hidden;" vertex="1" parent="_RFqk7BaSSoq2iDviCtG-45">
          <mxGeometry x="30" width="150" height="30" as="geometry" />
        </mxCell>
      </root>
    </mxGraphModel>
  </diagram>
</mxfile>
